<svg xmlns="http://www.w3.org/2000/svg" viewBox="0 0 430 430" style="enable-background:new 0 0 430 430" xml:space="preserve"><style>.st4{fill:#ffcb00}</style><g id="msrod-app"><path id="XMLID_198_" d="m356.68 311.22 51.89-47.9c3.5-3.23 5.49-7.77 5.49-12.54V51.96c0-13.08-10.6-23.68-23.68-23.68h-78.51v18.11h-79.04V28.28H40.09c-13.08 0-23.68 10.6-23.68 23.68v240.1c0 13.08 10.6 23.68 23.68 23.68h305.02c4.29 0 8.42-1.62 11.57-4.52z" style="fill:#3c3c3b"/><path id="XMLID_197_" d="M336.62 76.06c0-4.37-3.22-7.9-7.2-7.9H202v210.41h127.43c3.97 0 7.2-3.54 7.2-7.9V76.06z" style="opacity:.57;fill:#989898"/><path id="XMLID_201_" d="M98.91 68.16H70.4c-5.32 0-9.63 3.54-9.63 7.9v194.61c0 4.36 4.31 7.9 9.63 7.9H202V68.16H98.91z" style="fill:#2d2d2d"/><path id="XMLID_00000177476149549461345060000013679366643204466854_" class="st4" d="M349.42 76.17h64.64v13.07h-64.64z"/><path id="XMLID_00000169546053277236752240000005784948157316626106_" class="st4" d="M349.42 118.34h64.64v13.07h-64.64z"/><path id="XMLID_00000093142685573112660780000002542754467003524494_" class="st4" d="M366.13 139.42h47.93v13.07h-47.93z"/><path id="XMLID_00000009568882668821142370000013264646741150175128_" class="st4" d="M349.42 160.51h64.64v13.07h-64.64z"/><path id="XMLID_00000093875098780103332830000012448213369764187053_" class="st4" d="M366.13 181.59h47.93v13.07h-47.93z"/><path id="XMLID_00000085973438587028534860000010099899504133536422_" class="st4" d="M349.42 202.68h64.64v13.07h-64.64z"/><path id="XMLID_00000165913657869519627630000016809011409723135401_" class="st4" d="M366.13 97.25h47.93v13.07h-47.93z"/><path style="fill:#e34949" d="M108.81 295.67h47.66v-118.1h90.33v118.1h47.68l-92.84 86.68z"/><path d="M240.79 183.2v118.08h39.15l-78.3 73.13-78.28-73.13h39.14V183.2h78.29zm12.03-11.25H150.44v118.09h-56.2l20.6 19.22 78.27 73.1 8.51 7.95 8.53-7.95 78.29-73.1L309 290.04h-56.17V171.95h-.01z" style="fill:#232323"/></g></svg>