<?xml version="1.0" encoding="utf-8"?>
<!-- Generator: Adobe Illustrator 26.0.3, SVG Export Plug-In . SVG Version: 6.00 Build 0)  -->
<svg version="1.1" xmlns="http://www.w3.org/2000/svg" xmlns:xlink="http://www.w3.org/1999/xlink" x="0px" y="0px"
	 viewBox="0 0 430 430" style="enable-background:new 0 0 430 430;" xml:space="preserve">
<style type="text/css">
	.st0{display:none;}
	.st1{fill:#3C3C3B;}
	.st2{opacity:0.57;fill:#989898;}
	.st3{fill:#2D2D2D;}
	.st4{fill:#FFCB00;}
	.st5{display:inline;fill:#E34949;}
	.st6{display:inline;}
	.st7{display:inline;fill:#B5B5B5;}
	.st8{display:inline;fill:#6C6C6C;}
	.st9{fill:#E34949;}
	.st10{fill:#232323;}
</style>
<g id="msrod-app">
	<rect x="14" y="17" class="st0" width="401" height="401"/>
	<path id="XMLID_198_" class="st1" d="M356.68,311.22l51.89-47.9c3.5-3.23,5.49-7.77,5.49-12.54V51.96
		c0-13.08-10.6-23.68-23.68-23.68h-78.51v18.11h-79.04V28.28H40.09c-13.08,0-23.68,10.6-23.68,23.68v240.1
		c0,13.08,10.6,23.68,23.68,23.68h305.02C349.4,315.74,353.53,314.12,356.68,311.22z"/>
	<path id="XMLID_197_" class="st2" d="M336.62,76.06c0-4.37-3.22-7.9-7.2-7.9h-8.97H210.97H202v210.41h8.97h109.49h8.97
		c3.97,0,7.2-3.54,7.2-7.9V76.06z"/>
	<path id="XMLID_201_" class="st3" d="M98.91,68.16H70.4c-5.32,0-9.63,3.54-9.63,7.9v194.61c0,4.36,4.31,7.9,9.63,7.9h28.51H202
		V68.16H98.91z"/>
	<g>
		
			<rect id="XMLID_00000177476149549461345060000013679366643204466854_" x="349.42" y="76.17" class="st4" width="64.64" height="13.07"/>
		
			<rect id="XMLID_00000169546053277236752240000005784948157316626106_" x="349.42" y="118.34" class="st4" width="64.64" height="13.07"/>
		
			<rect id="XMLID_00000093142685573112660780000002542754467003524494_" x="366.13" y="139.42" class="st4" width="47.93" height="13.07"/>
		
			<rect id="XMLID_00000009568882668821142370000013264646741150175128_" x="349.42" y="160.51" class="st4" width="64.64" height="13.07"/>
		
			<rect id="XMLID_00000093875098780103332830000012448213369764187053_" x="366.13" y="181.59" class="st4" width="47.93" height="13.07"/>
		
			<rect id="XMLID_00000085973438587028534860000010099899504133536422_" x="349.42" y="202.68" class="st4" width="64.64" height="13.07"/>
		
			<rect id="XMLID_00000165913657869519627630000016809011409723135401_" x="366.13" y="97.25" class="st4" width="47.93" height="13.07"/>
	</g>
	<g class="st0">
		<polygon class="st5" points="166.83,333.59 206.36,333.59 206.36,235.65 281.27,235.65 281.27,333.59 320.8,333.59 243.81,405.47 
					"/>
		<g class="st6">
			<path class="st1" d="M276.28,240.32v97.92h32.47l-64.93,60.64l-64.92-60.64h32.46v-97.92h32.46H276.28L276.28,240.32z
				 M286.26,230.99h-9.98h-32.47h-32.46h-9.98v9.33v88.6h-22.47h-24.14l17.08,15.94l64.91,60.62l7.06,6.59l7.07-6.59l64.92-60.62
				l17.04-15.94h-24.1h-22.48v-88.6V230.99L286.26,230.99z"/>
		</g>
	</g>
	<g class="st0">
		
			<rect id="XMLID_00000078723693106931034790000002330301062538430890_" x="349.28" y="76.39" class="st7" width="64.72" height="13.08"/>
		
			<rect id="XMLID_00000126323578876455002500000004865043836716040367_" x="349.28" y="118.59" class="st7" width="64.72" height="13.08"/>
		
			<rect id="XMLID_00000142166479435524122780000012213991136924747905_" x="366.01" y="139.68" class="st7" width="47.99" height="13.08"/>
		
			<rect id="XMLID_00000136399608247845073490000015388725630274905529_" x="349.28" y="160.78" class="st7" width="64.72" height="13.08"/>
		
			<rect id="XMLID_00000067223652842908300850000010719164576657014944_" x="366.01" y="181.88" class="st7" width="47.99" height="13.08"/>
		
			<rect id="XMLID_00000132780733853115923440000012588448241182016693_" x="349.28" y="202.97" class="st7" width="64.72" height="13.08"/>
		
			<rect id="XMLID_00000104678395462155062930000013043695287669291392_" x="366.01" y="97.49" class="st7" width="47.99" height="13.08"/>
	</g>
	<g class="st0">
		<polygon class="st8" points="166.57,333.97 206.13,333.97 206.13,235.97 281.08,235.97 281.08,333.97 320.64,333.97 243.6,405.89 
					"/>
		<g class="st6">
			<path class="st3" d="M276.09,240.64v97.98h32.49L243.6,399.3l-64.96-60.68h32.48v-97.98h32.48H276.09L276.09,240.64z
				 M286.08,231.31h-9.99H243.6h-32.48h-9.99v9.33v88.65h-22.49H154.5l17.09,15.95l64.95,60.65l7.06,6.59l7.08-6.59l64.96-60.65
				l17.05-15.95h-24.12h-22.5v-88.65V231.31L286.08,231.31z"/>
		</g>
	</g>
	<g>
		<polygon class="st9" points="108.81,295.67 156.47,295.67 156.47,177.57 246.8,177.57 246.8,295.67 294.48,295.67 201.64,382.35 
					"/>
		<g>
			<path class="st10" d="M240.79,183.2v118.08h39.15l-78.3,73.13l-78.28-73.13h39.14V183.2h39.15H240.79L240.79,183.2z
				 M252.82,171.95h-12.04h-39.15h-39.15h-12.04v11.25v106.84h-27.1h-29.1l20.6,19.22l78.27,73.1l8.51,7.95l8.53-7.95l78.29-73.1
				L309,290.04h-29.06h-27.11V183.2V171.95L252.82,171.95z"/>
		</g>
	</g>
</g>
<g id="Camada_2">
</g>
</svg>
