<?xml version="1.0" encoding="UTF-8" standalone="no"?>
<!-- Generator: Adobe Illustrator 26.0.3, SVG Export Plug-In . SVG Version: 6.00 Build 0)  -->

<svg
   version="1.1"
   x="0px"
   y="0px"
   viewBox="0 0 511.99999 512"
   xml:space="preserve"
   id="svg8"
   width="512"
   height="512"
   xmlns="http://www.w3.org/2000/svg"
   xmlns:svg="http://www.w3.org/2000/svg"><defs
   id="defs8" />
<style
   type="text/css"
   id="style1">
	.st0{display:none;}
	.st1{fill:#3C3C3B;}
	.st2{opacity:0.57;fill:#989898;}
	.st3{fill:#2D2D2D;}
	.st4{fill:#FFCB00;}
	.st5{display:inline;fill:#E34949;}
	.st6{display:inline;}
	.st7{display:inline;fill:#B5B5B5;}
	.st8{display:inline;fill:#6C6C6C;}
	.st9{fill:#E34949;}
	.st10{fill:#232323;}
</style>
<rect
   x="29.284859"
   y="39.356838"
   class="st0"
   width="451.77414"
   height="451.77414"
   id="rect1"
   style="stroke-width:1.12662" /><path
   id="XMLID_198_"
   class="st1"
   d="m 415.35459,370.83062 58.46025,-53.96504 c 3.94316,-3.63898 6.18514,-8.75383 6.18514,-14.1278 V 78.743431 c 0,-14.736174 -11.94216,-26.678333 -26.67834,-26.678333 H 364.8708 V 72.468164 H 275.82285 V 52.065098 H 58.678343 c -14.736174,0 -26.678333,11.942159 -26.678333,26.678333 V 349.2446 c 0,14.73618 11.942159,26.67834 26.678333,26.67834 H 402.31961 c 4.83319,0 9.48613,-1.82512 13.03498,-5.09232 z"
   style="stroke-width:1.12662" /><path
   id="XMLID_197_"
   class="st2"
   d="m 392.75462,105.89494 c 0,-4.92332 -3.62772,-8.900285 -8.11166,-8.900285 H 374.53719 251.19496 241.08919 V 334.04652 h 10.10577 123.3535 10.10577 c 4.47267,0 8.11165,-3.98823 8.11165,-8.90029 V 105.89494 Z"
   style="stroke-width:1.12662" /><path
   id="XMLID_201_"
   class="st3"
   d="M 124.94606,96.994655 H 92.826159 c -5.993612,0 -10.84934,3.988235 -10.84934,8.900285 v 219.25129 c 0,4.91206 4.855728,8.90029 10.84934,8.90029 H 124.94606 241.08919 V 96.994655 Z"
   style="stroke-width:1.12662" /><g
   id="g1"
   transform="matrix(1.1266188,0,0,1.1266188,13.512195,20.204318)">
		
			<rect
   id="XMLID_00000177476149549461345060000013679366643204466854_"
   x="349.42001"
   y="76.169998"
   class="st4"
   width="64.639999"
   height="13.07" />
		
			<rect
   id="XMLID_00000169546053277236752240000005784948157316626106_"
   x="349.42001"
   y="118.34"
   class="st4"
   width="64.639999"
   height="13.07" />
		
			<rect
   id="XMLID_00000093142685573112660780000002542754467003524494_"
   x="366.13"
   y="139.42"
   class="st4"
   width="47.93"
   height="13.07" />
		
			<rect
   id="XMLID_00000009568882668821142370000013264646741150175128_"
   x="349.42001"
   y="160.50999"
   class="st4"
   width="64.639999"
   height="13.07" />
		
			<rect
   id="XMLID_00000093875098780103332830000012448213369764187053_"
   x="366.13"
   y="181.59"
   class="st4"
   width="47.93"
   height="13.07" />
		
			<rect
   id="XMLID_00000085973438587028534860000010099899504133536422_"
   x="349.42001"
   y="202.67999"
   class="st4"
   width="64.639999"
   height="13.07" />
		
			<rect
   id="XMLID_00000165913657869519627630000016809011409723135401_"
   x="366.13"
   y="97.25"
   class="st4"
   width="47.93"
   height="13.07" />
	</g><g
   class="st0"
   id="g3"
   transform="matrix(1.1266188,0,0,1.1266188,13.512195,20.204318)">
		<polygon
   class="st5"
   points="320.8,333.59 243.81,405.47 166.83,333.59 206.36,333.59 206.36,235.65 281.27,235.65 281.27,333.59 "
   id="polygon1" />
		<g
   class="st6"
   id="g2">
			<path
   class="st1"
   d="m 276.28,240.32 v 97.92 h 32.47 l -64.93,60.64 -64.92,-60.64 h 32.46 v -97.92 h 32.46 z m 9.98,-9.33 h -9.98 -32.47 -32.46 -9.98 v 9.33 88.6 H 178.9 154.76 l 17.08,15.94 64.91,60.62 7.06,6.59 7.07,-6.59 64.92,-60.62 17.04,-15.94 h -24.1 -22.48 v -88.6 z"
   id="path1" />
		</g>
	</g><g
   class="st0"
   id="g4"
   transform="matrix(1.1266188,0,0,1.1266188,13.512195,20.204318)">
		
			<rect
   id="XMLID_00000078723693106931034790000002330301062538430890_"
   x="349.28"
   y="76.389999"
   class="st7"
   width="64.720001"
   height="13.08" />
		
			<rect
   id="XMLID_00000126323578876455002500000004865043836716040367_"
   x="349.28"
   y="118.59"
   class="st7"
   width="64.720001"
   height="13.08" />
		
			<rect
   id="XMLID_00000142166479435524122780000012213991136924747905_"
   x="366.01001"
   y="139.67999"
   class="st7"
   width="47.990002"
   height="13.08" />
		
			<rect
   id="XMLID_00000136399608247845073490000015388725630274905529_"
   x="349.28"
   y="160.78"
   class="st7"
   width="64.720001"
   height="13.08" />
		
			<rect
   id="XMLID_00000067223652842908300850000010719164576657014944_"
   x="366.01001"
   y="181.88"
   class="st7"
   width="47.990002"
   height="13.08" />
		
			<rect
   id="XMLID_00000132780733853115923440000012588448241182016693_"
   x="349.28"
   y="202.97"
   class="st7"
   width="64.720001"
   height="13.08" />
		
			<rect
   id="XMLID_00000104678395462155062930000013043695287669291392_"
   x="366.01001"
   y="97.489998"
   class="st7"
   width="47.990002"
   height="13.08" />
	</g><g
   class="st0"
   id="g6"
   transform="matrix(1.1266188,0,0,1.1266188,13.512195,20.204318)">
		<polygon
   class="st8"
   points="320.64,333.97 243.6,405.89 166.57,333.97 206.13,333.97 206.13,235.97 281.08,235.97 281.08,333.97 "
   id="polygon4" />
		<g
   class="st6"
   id="g5">
			<path
   class="st3"
   d="m 276.09,240.64 v 97.98 h 32.49 L 243.6,399.3 178.64,338.62 h 32.48 v -97.98 h 32.48 z m 9.99,-9.33 h -9.99 -32.49 -32.48 -9.99 v 9.33 88.65 H 178.64 154.5 l 17.09,15.95 64.95,60.65 7.06,6.59 7.08,-6.59 64.96,-60.65 17.05,-15.95 h -24.12 -22.5 v -88.65 -9.33 z"
   id="path4" />
		</g>
	</g><g
   id="g8"
   transform="matrix(1.1266188,0,0,1.1266188,13.512195,20.204318)">
		<polygon
   class="st9"
   points="294.48,295.67 201.64,382.35 108.81,295.67 156.47,295.67 156.47,177.57 246.8,177.57 246.8,295.67 "
   id="polygon6" />
		<g
   id="g7">
			<path
   class="st10"
   d="m 240.79,183.2 v 118.08 h 39.15 l -78.3,73.13 -78.28,-73.13 H 162.5 V 183.2 h 39.15 z m 12.03,-11.25 h -12.04 -39.15 -39.15 -12.04 v 11.25 106.84 h -27.1 -29.1 l 20.6,19.22 78.27,73.1 8.51,7.95 8.53,-7.95 78.29,-73.1 L 309,290.04 H 279.94 252.83 V 183.2 171.95 Z"
   id="path6" />
		</g>
	</g>

</svg>
