<?xml version="1.0" encoding="UTF-8" standalone="no"?>
<!-- Generator: Adobe Illustrator 26.0.3, SVG Export Plug-In . SVG Version: 6.00 Build 0)  -->

<svg
   version="1.1"
   x="0px"
   y="0px"
   viewBox="0 0 511.99999 512"
   xml:space="preserve"
   id="svg8"
   sodipodi:docname="msrod-app-mono-resized.svg"
   width="512"
   height="512"
   inkscape:version="1.3.2 (091e20ef0f, 2023-11-25)"
   inkscape:export-filename="msrod-app-color-exported.svg"
   inkscape:export-xdpi="96"
   inkscape:export-ydpi="96"
   xmlns:inkscape="http://www.inkscape.org/namespaces/inkscape"
   xmlns:sodipodi="http://sodipodi.sourceforge.net/DTD/sodipodi-0.dtd"
   xmlns="http://www.w3.org/2000/svg"
   xmlns:svg="http://www.w3.org/2000/svg"><defs
   id="defs8">
	
	
	
	
	
	
	
	
	

		
			
		
			
		
			
		
			
		
			
		
			
		
			
	
		
		
	
		
		
	
			
		</defs><sodipodi:namedview
   id="namedview8"
   pagecolor="#ffffff"
   bordercolor="#000000"
   borderopacity="0.25"
   inkscape:showpageshadow="2"
   inkscape:pageopacity="0.0"
   inkscape:pagecheckerboard="0"
   inkscape:deskcolor="#d1d1d1"
   inkscape:zoom="1.3237697"
   inkscape:cx="206.98465"
   inkscape:cy="278.37169"
   inkscape:window-width="1920"
   inkscape:window-height="1011"
   inkscape:window-x="0"
   inkscape:window-y="0"
   inkscape:window-maximized="1"
   inkscape:current-layer="svg8" />
<style
   type="text/css"
   id="style1">
	.st0{display:none;}
	.st1{fill:#3C3C3B;}
	.st2{opacity:0.57;fill:#989898;}
	.st3{fill:#2D2D2D;}
	.st4{fill:#FFCB00;}
	.st5{display:inline;fill:#E34949;}
	.st6{display:inline;}
	.st7{display:inline;fill:#B5B5B5;}
	.st8{display:inline;fill:#6C6C6C;}
	.st9{fill:#E34949;}
	.st10{fill:#232323;}
</style>
<rect
   x="29.284859"
   y="39.356838"
   class="st0"
   width="451.77414"
   height="451.77414"
   id="rect1"
   style="stroke-width:1.12662" /><path
   id="XMLID_198_"
   style="stroke-width:1.12662;fill:#000000"
   class="st1"
   d="M 58.677734 52.064453 C 43.941755 52.064453 32 64.008149 32 78.744141 L 32 349.24414 C 32 363.98019 43.941755 375.92383 58.677734 375.92383 L 150.71094 375.92383 L 231.07422 450.97852 L 240.66211 459.93359 L 250.27148 450.97852 L 330.6543 375.92383 L 402.32031 375.92383 C 407.1535 375.92383 411.80662 374.09715 415.35547 370.83008 L 473.81445 316.86523 C 477.75761 313.22638 480 308.11225 480 302.73828 L 480 279.50781 L 480 263.27148 L 480 248.54688 L 480 239.51172 L 480 224.78711 L 480 215.76367 L 480 201.03711 L 480 192.00195 L 480 177.27734 L 480 168.25391 L 480 153.5293 L 480 144.49219 L 480 129.76758 L 480 120.74414 L 480 106.01953 L 480 82.671875 L 480 78.744141 C 480 64.008149 468.05819 52.064453 453.32227 52.064453 L 364.87109 52.064453 L 364.87109 72.46875 L 275.82227 72.46875 L 275.82227 52.064453 L 58.677734 52.064453 z M 94.449219 99.138672 L 126.57031 99.138672 L 235 99.138672 L 235 213.92578 L 196.56641 213.92578 L 183.00195 213.92578 L 183.00195 226.59961 L 183.00195 336.19141 L 126.57031 336.19141 L 94.449219 336.19141 C 88.455643 336.19141 83.599609 332.20302 83.599609 327.29102 L 83.599609 108.03906 C 83.599609 103.12707 88.455643 99.138672 94.449219 99.138672 z M 247 99.138672 L 252.81836 99.138672 L 376.16016 99.138672 L 386.26562 99.138672 C 390.74956 99.138672 394.37891 103.11579 394.37891 108.03906 L 394.38867 108.03906 L 394.38867 327.29102 C 394.38867 332.20303 390.75001 336.19141 386.27734 336.19141 L 376.17188 336.19141 L 298.35547 336.19141 L 298.35547 226.59961 L 298.35547 213.92578 L 298.34375 213.92578 L 284.7793 213.92578 L 247 213.92578 L 247 99.138672 z M 407.17578 106.01953 L 474 106.01953 L 474 120.74414 L 407.17578 120.74414 L 407.17578 106.01953 z M 426.00195 129.76758 L 474 129.76758 L 474 144.49219 L 426.00195 144.49219 L 426.00195 129.76758 z M 407.17578 153.5293 L 474 153.5293 L 474 168.25391 L 407.17578 168.25391 L 407.17578 153.5293 z M 426.00195 177.27734 L 474 177.27734 L 474 192.00195 L 426.00195 192.00195 L 426.00195 177.27734 z M 407.17578 201.03711 L 474 201.03711 L 474 215.76367 L 407.17578 215.76367 L 407.17578 201.03711 z M 426.00195 224.78711 L 474 224.78711 L 474 239.51172 L 426.00195 239.51172 L 426.00195 224.78711 z M 196.58789 226.59961 L 240.69531 226.59961 L 284.79102 226.59961 L 284.79102 359.63086 L 328.89844 359.63086 L 240.68359 442.02148 L 152.49219 359.63086 L 196.58789 359.63086 L 196.58789 226.59961 z M 407.17578 248.54688 L 474 248.54688 L 474 263.27148 L 407.17578 263.27148 L 407.17578 248.54688 z " /><g
   class="st0"
   id="g3"
   transform="matrix(1.1266188,0,0,1.1266188,13.512195,20.204318)">
		<polygon
   class="st5"
   points="281.27,235.65 281.27,333.59 320.8,333.59 243.81,405.47 166.83,333.59 206.36,333.59 206.36,235.65 "
   id="polygon1" />
		<g
   class="st6"
   id="g2">
			<path
   class="st1"
   d="m 276.28,240.32 v 97.92 h 32.47 l -64.93,60.64 -64.92,-60.64 h 32.46 v -97.92 h 32.46 z m 9.98,-9.33 h -9.98 -32.47 -32.46 -9.98 v 9.33 88.6 H 178.9 154.76 l 17.08,15.94 64.91,60.62 7.06,6.59 7.07,-6.59 64.92,-60.62 17.04,-15.94 h -24.1 -22.48 v -88.6 z"
   id="path1" />
		</g>
	</g><g
   class="st0"
   id="g4"
   transform="matrix(1.1266188,0,0,1.1266188,13.512195,20.204318)">
		
			<rect
   id="XMLID_00000078723693106931034790000002330301062538430890_"
   x="349.28"
   y="76.389999"
   class="st7"
   width="64.720001"
   height="13.08" />
		
			<rect
   id="XMLID_00000126323578876455002500000004865043836716040367_"
   x="349.28"
   y="118.59"
   class="st7"
   width="64.720001"
   height="13.08" />
		
			<rect
   id="XMLID_00000142166479435524122780000012213991136924747905_"
   x="366.01001"
   y="139.67999"
   class="st7"
   width="47.990002"
   height="13.08" />
		
			<rect
   id="XMLID_00000136399608247845073490000015388725630274905529_"
   x="349.28"
   y="160.78"
   class="st7"
   width="64.720001"
   height="13.08" />
		
			<rect
   id="XMLID_00000067223652842908300850000010719164576657014944_"
   x="366.01001"
   y="181.88"
   class="st7"
   width="47.990002"
   height="13.08" />
		
			<rect
   id="XMLID_00000132780733853115923440000012588448241182016693_"
   x="349.28"
   y="202.97"
   class="st7"
   width="64.720001"
   height="13.08" />
		
			<rect
   id="XMLID_00000104678395462155062930000013043695287669291392_"
   x="366.01001"
   y="97.489998"
   class="st7"
   width="47.990002"
   height="13.08" />
	</g><g
   class="st0"
   id="g6"
   transform="matrix(1.1266188,0,0,1.1266188,13.512195,20.204318)">
		<polygon
   class="st8"
   points="281.08,235.97 281.08,333.97 320.64,333.97 243.6,405.89 166.57,333.97 206.13,333.97 206.13,235.97 "
   id="polygon4" />
		<g
   class="st6"
   id="g5">
			<path
   class="st3"
   d="m 276.09,240.64 v 97.98 h 32.49 L 243.6,399.3 178.64,338.62 h 32.48 v -97.98 h 32.48 z m 9.99,-9.33 h -9.99 -32.49 -32.48 -9.99 v 9.33 88.65 H 178.64 154.5 l 17.09,15.95 64.95,60.65 7.06,6.59 7.08,-6.59 64.96,-60.65 17.05,-15.95 h -24.12 -22.5 v -88.65 -9.33 z"
   id="path4" />
		</g>
	</g>
<g
   id="Camada_2"
   transform="translate(-16.41,-28.28)">
</g>
<rect
   style="fill:#000000;fill-opacity:0"
   id="rect2"
   width="32.013805"
   height="41.763424"
   x="212.57652"
   y="20.387445" /></svg>
