<?xml version="1.0" encoding="UTF-8" standalone="no"?>
<!-- Generator: Adobe Illustrator 26.0.3, SVG Export Plug-In . SVG Version: 6.00 Build 0)  -->

<svg
   version="1.1"
   x="0px"
   y="0px"
   viewBox="0 0 511.99999 512"
   xml:space="preserve"
   id="svg8"
   width="512"
   height="512"
   xmlns="http://www.w3.org/2000/svg"
   xmlns:svg="http://www.w3.org/2000/svg"><defs
   id="defs8" />
<style
   type="text/css"
   id="style1">
	.st0{display:none;}
	.st1{fill:#3C3C3B;}
	.st2{opacity:0.57;fill:#989898;}
	.st3{fill:#2D2D2D;}
	.st4{fill:#FFCB00;}
	.st5{display:inline;fill:#E34949;}
	.st6{display:inline;}
	.st7{display:inline;fill:#B5B5B5;}
	.st8{display:inline;fill:#6C6C6C;}
	.st9{fill:#E34949;}
	.st10{fill:#232323;}
</style>
<rect
   x="29.284859"
   y="39.356838"
   class="st0"
   width="451.77414"
   height="451.77414"
   id="rect1"
   style="stroke-width:1.12662" /><path
   id="XMLID_198_"
   style="fill:#000000;stroke-width:1.12662"
   class="st1"
   d="M 58.677734,52.064453 C 43.941755,52.064453 32,64.008149 32,78.744141 V 349.24414 c 0,14.73605 11.941755,26.67969 26.677734,26.67969 h 92.033206 l 80.36328,75.05469 9.58789,8.95507 9.60937,-8.95507 80.38282,-75.05469 h 71.66601 c 4.83319,0 9.48631,-1.82668 13.03516,-5.09375 l 58.45898,-53.96485 C 477.75761,313.22638 480,308.11225 480,302.73828 v -23.23047 -16.23633 -14.7246 -9.03516 -14.72461 -9.02344 -14.72656 -9.03516 -14.72461 -9.02343 -14.72461 -9.03711 -14.72461 -9.02344 -14.72461 -23.347655 -3.927734 C 480,64.008149 468.05819,52.064453 453.32227,52.064453 H 364.87109 V 72.46875 H 275.82227 V 52.064453 Z M 94.449219,99.138672 H 126.57031 235 V 213.92578 h -38.43359 -13.56446 v 12.67383 109.5918 H 126.57031 94.449219 c -5.993576,0 -10.84961,-3.98839 -10.84961,-8.90039 V 108.03906 c 0,-4.91199 4.856034,-8.900388 10.84961,-8.900388 z m 152.550781,0 h 5.81836 123.3418 10.10546 c 4.48394,0 8.11329,3.977118 8.11329,8.900388 h 0.01 v 219.25196 c 0,4.91201 -3.63866,8.90039 -8.11133,8.90039 h -10.1057 -77.81641 V 226.59961 213.92578 H 298.34375 284.7793 247 Z m 160.17578,6.880858 H 474 v 14.72461 h -66.82422 z m 18.82617,23.74805 H 474 v 14.72461 H 426.00195 Z M 407.17578,153.5293 H 474 v 14.72461 h -66.82422 z m 18.82617,23.74804 H 474 v 14.72461 h -47.99805 z m -18.82617,23.75977 H 474 v 14.72656 h -66.82422 z m 18.82617,23.75 H 474 v 14.72461 h -47.99805 z m -229.41406,1.8125 h 44.10742 44.09571 v 133.03125 h 44.10742 l -88.21485,82.39062 -88.1914,-82.39062 h 44.0957 z m 210.58789,21.94727 H 474 v 14.7246 h -66.82422 z" /><g
   class="st0"
   id="g3"
   transform="matrix(1.1266188,0,0,1.1266188,13.512195,20.204318)">
		<polygon
   class="st5"
   points="320.8,333.59 243.81,405.47 166.83,333.59 206.36,333.59 206.36,235.65 281.27,235.65 281.27,333.59 "
   id="polygon1" />
		<g
   class="st6"
   id="g2">
			<path
   class="st1"
   d="m 276.28,240.32 v 97.92 h 32.47 l -64.93,60.64 -64.92,-60.64 h 32.46 v -97.92 h 32.46 z m 9.98,-9.33 h -9.98 -32.47 -32.46 -9.98 v 9.33 88.6 H 178.9 154.76 l 17.08,15.94 64.91,60.62 7.06,6.59 7.07,-6.59 64.92,-60.62 17.04,-15.94 h -24.1 -22.48 v -88.6 z"
   id="path1" />
		</g>
	</g><g
   class="st0"
   id="g4"
   transform="matrix(1.1266188,0,0,1.1266188,13.512195,20.204318)">
		
			<rect
   id="XMLID_00000078723693106931034790000002330301062538430890_"
   x="349.28"
   y="76.389999"
   class="st7"
   width="64.720001"
   height="13.08" />
		
			<rect
   id="XMLID_00000126323578876455002500000004865043836716040367_"
   x="349.28"
   y="118.59"
   class="st7"
   width="64.720001"
   height="13.08" />
		
			<rect
   id="XMLID_00000142166479435524122780000012213991136924747905_"
   x="366.01001"
   y="139.67999"
   class="st7"
   width="47.990002"
   height="13.08" />
		
			<rect
   id="XMLID_00000136399608247845073490000015388725630274905529_"
   x="349.28"
   y="160.78"
   class="st7"
   width="64.720001"
   height="13.08" />
		
			<rect
   id="XMLID_00000067223652842908300850000010719164576657014944_"
   x="366.01001"
   y="181.88"
   class="st7"
   width="47.990002"
   height="13.08" />
		
			<rect
   id="XMLID_00000132780733853115923440000012588448241182016693_"
   x="349.28"
   y="202.97"
   class="st7"
   width="64.720001"
   height="13.08" />
		
			<rect
   id="XMLID_00000104678395462155062930000013043695287669291392_"
   x="366.01001"
   y="97.489998"
   class="st7"
   width="47.990002"
   height="13.08" />
	</g><g
   class="st0"
   id="g6"
   transform="matrix(1.1266188,0,0,1.1266188,13.512195,20.204318)">
		<polygon
   class="st8"
   points="320.64,333.97 243.6,405.89 166.57,333.97 206.13,333.97 206.13,235.97 281.08,235.97 281.08,333.97 "
   id="polygon4" />
		<g
   class="st6"
   id="g5">
			<path
   class="st3"
   d="m 276.09,240.64 v 97.98 h 32.49 L 243.6,399.3 178.64,338.62 h 32.48 v -97.98 h 32.48 z m 9.99,-9.33 h -9.99 -32.49 -32.48 -9.99 v 9.33 88.65 H 178.64 154.5 l 17.09,15.95 64.95,60.65 7.06,6.59 7.08,-6.59 64.96,-60.65 17.05,-15.95 h -24.12 -22.5 v -88.65 -9.33 z"
   id="path4" />
		</g>
	</g>

<rect
   style="fill:#000000;fill-opacity:0"
   id="rect2"
   width="32.013805"
   height="41.763424"
   x="212.57652"
   y="20.387445" /></svg>
