<svg version="1.1" x="0" y="0" xml:space="preserve" id="svg8" width="512" height="512" xmlns="http://www.w3.org/2000/svg"><style type="text/css" id="style1">.st0{display:none}.st6,.st7{display:inline}.st7{fill:#b5b5b5}</style><path id="XMLID_198_" style="fill:#000;stroke-width:1.12662" d="M58.678 52.064C43.942 52.064 32 64.008 32 78.744v270.5c0 14.736 11.942 26.68 26.678 26.68h92.033l80.363 75.055 9.588 8.955 9.61-8.955 80.382-75.055h71.666c4.833 0 9.487-1.827 13.035-5.094l58.46-53.965A19.21 19.21 0 0 0 480 302.738V78.744c0-14.736-11.942-26.68-26.678-26.68h-88.45V72.47h-89.05V52.064ZM94.449 99.14H235v114.787h-51.998V336.19H94.45c-5.994 0-10.85-3.988-10.85-8.9V108.039c0-4.912 4.856-8.9 10.85-8.9zm152.551 0h139.266c4.484 0 8.113 3.977 8.113 8.9h.01v219.252c0 4.912-3.639 8.9-8.111 8.9h-87.923V213.926H247Zm160.176 6.88H474v14.725h-66.824zm18.826 23.749H474v14.724h-47.998Zm-18.826 23.761H474v14.725h-66.824zm18.826 23.748H474v14.725h-47.998zm-18.826 23.76H474v14.727h-66.824zm18.826 23.75H474v14.725h-47.998zM196.588 226.6h88.203v133.03h44.107l-88.214 82.391-88.192-82.39h44.096zm210.588 21.947H474v14.724h-66.824z"/><path style="fill:#000;fill-opacity:0" id="rect2" d="M212.577 20.387h32.014V62.15h-32.014z"/></svg>