<svg version="1.1" x="0" y="0" xml:space="preserve" id="svg8" width="512" height="512" xmlns="http://www.w3.org/2000/svg"><style type="text/css" id="style1">.st4{fill:#ffcb00}</style><path id="XMLID_198_" d="m415.355 370.83 58.46-53.964A19.212 19.212 0 0 0 480 302.738V78.743c0-14.736-11.942-26.678-26.678-26.678H364.87v20.403h-89.048V52.065H58.678C43.942 52.065 32 64.007 32 78.743v270.502c0 14.736 11.942 26.678 26.678 26.678H402.32c4.833 0 9.486-1.825 13.035-5.092z" style="stroke-width:1.12662;fill:#3c3c3b"/><path id="XMLID_197_" d="M392.755 105.895c0-4.923-3.628-8.9-8.112-8.9H241.089v237.052h143.565c4.473 0 8.112-3.989 8.112-8.9V105.894Z" style="stroke-width:1.12662;opacity:.57;fill:#989898"/><path id="XMLID_201_" d="M124.946 96.995h-32.12c-5.993 0-10.85 3.988-10.85 8.9v219.251c0 4.912 4.857 8.9 10.85 8.9H241.09V96.996Z" style="stroke-width:1.12662;fill:#2d2d2d"/><g id="g1" transform="translate(13.512 20.204) scale(1.12662)"><path id="XMLID_00000177476149549461345060000013679366643204466854_" class="st4" d="M349.42 76.17h64.64v13.07h-64.64z"/><path id="XMLID_00000169546053277236752240000005784948157316626106_" class="st4" d="M349.42 118.34h64.64v13.07h-64.64z"/><path id="XMLID_00000093142685573112660780000002542754467003524494_" class="st4" d="M366.13 139.42h47.93v13.07h-47.93z"/><path id="XMLID_00000009568882668821142370000013264646741150175128_" class="st4" d="M349.42 160.51h64.64v13.07h-64.64z"/><path id="XMLID_00000093875098780103332830000012448213369764187053_" class="st4" d="M366.13 181.59h47.93v13.07h-47.93z"/><path id="XMLID_00000085973438587028534860000010099899504133536422_" class="st4" d="M349.42 202.68h64.64v13.07h-64.64z"/><path id="XMLID_00000165913657869519627630000016809011409723135401_" class="st4" d="M366.13 97.25h47.93v13.07h-47.93z"/></g><g id="g8" transform="translate(13.512 20.204) scale(1.12662)"><path id="polygon6" style="fill:#e34949" d="m294.48 295.67-92.84 86.68-92.83-86.68h47.66v-118.1h90.33v118.1z"/><g id="g7"><path d="M240.79 183.2v118.08h39.15l-78.3 73.13-78.28-73.13h39.14V183.2h39.15zm12.03-11.25H150.44v118.09h-56.2l20.6 19.22 78.27 73.1 8.51 7.95 8.53-7.95 78.29-73.1L309 290.04h-56.17V171.95Z" id="path6" style="fill:#232323"/></g></g></svg>